<svg version="1" xmlns="http://www.w3.org/2000/svg" width="1213.333" height="1213.333" viewBox="0 0 910.000000 910.000000"><path d="M433.4 12.2c-11.5 6.6-22.9 13.2-25.4 14.6-2.5 1.4-8.3 4.8-13 7.5-4.7 2.7-11.9 6.9-16 9.2-9 5.1-29.9 17.2-32 18.5-2.1 1.3-18.7 10.9-23.6 13.5-2.2 1.3-5.9 3.5-8.2 4.9-2.3 1.4-4.4 2.6-4.7 2.6-.2 0-2.9 1.6-5.9 3.5-3 1.9-5.8 3.5-6.1 3.5-.4 0-1.9.8-3.3 1.8-2.7 1.9-12.6 7.5-16.9 9.6-1.3.6-2.3 1.4-2.3 1.8 0 .5-.4.8-1 .8-.5 0-4.7 2.2-9.2 4.9-12.7 7.4-34.8 20.2-39.3 22.7-2.2 1.2-13.9 7.9-26 14.9-24.2 14.1-48 27.8-83 48-12.6 7.3-30.6 17.7-40 23.1l-17 9.9V454c-.1 124.6.1 227 .3 227.7.3 1.1 2.8 2.8 10.8 7.3 1.6 1 14.9 8.6 29.5 17 14.5 8.4 28.4 16.4 30.9 17.8 2.5 1.3 5 2.8 5.5 3.2.6.4 2.6 1.7 4.5 2.8 7.5 4.1 38.2 21.9 62.3 35.9 13.9 8 27.2 15.7 29.7 17.1 2.5 1.4 12.4 7.1 22 12.7s19.5 11.3 22 12.7c6.7 3.8 61.2 35.2 71.5 41.3 9.3 5.4 20.4 11.8 26.5 15.2 3 1.7 62.6 36.1 68.5 39.5 1.1.7 3.9 2.2 6.2 3.5l4.2 2.4 4.3-2.7c2.4-1.5 6.8-4.1 9.8-5.7 3-1.6 6.2-3.6 7.1-4.3.8-.8 1.8-1.4 2.2-1.4.4 0 4.4-2.2 8.9-4.9 7.4-4.3 17.4-10.1 51.6-29.8 13-7.5 28-16.1 32.7-18.8 42.4-24.3 84.3-48.6 85.2-49.5.7-.5 1.5-1 1.8-1 .3 0 11.7-6.5 25.3-14.3 13.6-7.9 35.5-20.6 48.7-28.2 13.2-7.6 29.2-16.8 35.5-20.5 6.3-3.7 22.1-12.8 35-20.2 12.9-7.4 27-15.6 31.3-18.2 4.3-2.5 8.1-4.6 8.4-4.6.3 0 1.7-.9 3.1-1.9l2.7-1.9V227.5l-11.5-6.8c-6.3-3.7-12.2-7.1-13-7.5-.8-.4-3.5-1.9-6-3.3-2.5-1.5-14.6-8.5-27-15.7-12.4-7.1-24.1-13.9-26-15.1-1.9-1.1-4.2-2.4-5-2.8-.8-.4-10.7-6.1-22-12.6s-22.3-12.9-24.5-14.2c-6-3.4-26.8-15.4-28.5-16.4-.8-.5-11.6-6.8-24-13.9-40.7-23.5-131.5-75.9-157-90.7-7.4-4.3-14.9-8.6-16.5-9.5-7.8-4.4-28.1-16.3-29-16.9-3-2.3-5.3-1.4-25.1 10.1z"/></svg>